<?xml version="1.0" encoding="UTF-8"?><svg id="a" xmlns="http://www.w3.org/2000/svg" viewBox="0 0 360 200"><defs><style>.b{fill:#fff;}.c{fill:none;stroke:#293382;stroke-miterlimit:10;stroke-width:4px;}.d{fill:#293382;}</style></defs><rect class="d" y="0" width="40" height="40"/><rect class="d" x="80" y="0" width="40" height="40"/><g><path class="b" d="M8.65,22.93c.47,.29,1.15,.53,1.87,.53,1.07,0,1.69-.56,1.69-1.38,0-.76-.43-1.19-1.52-1.61-1.32-.47-2.13-1.15-2.13-2.29,0-1.26,1.04-2.19,2.61-2.19,.83,0,1.43,.19,1.79,.4l-.29,.85c-.26-.14-.8-.38-1.54-.38-1.1,0-1.52,.66-1.52,1.21,0,.76,.49,1.13,1.61,1.56,1.37,.53,2.06,1.19,2.06,2.38,0,1.25-.92,2.33-2.83,2.33-.78,0-1.63-.23-2.06-.52l.26-.88Z"/><path class="b" d="M15.91,16.73v1.67h1.51v.8h-1.51v3.13c0,.72,.2,1.13,.79,1.13,.28,0,.48-.04,.61-.07l.05,.79c-.2,.08-.53,.14-.94,.14-.49,0-.89-.16-1.14-.44-.3-.31-.41-.83-.41-1.51v-3.17h-.9v-.8h.9v-1.39l1.03-.28Z"/><path class="b" d="M19.12,21.49c.02,1.43,.94,2.01,1.99,2.01,.76,0,1.21-.13,1.61-.3l.18,.76c-.37,.17-1.01,.36-1.93,.36-1.79,0-2.85-1.18-2.85-2.93s1.03-3.13,2.72-3.13c1.9,0,2.4,1.67,2.4,2.73,0,.22-.02,.38-.04,.49h-4.08Zm3.09-.76c.01-.67-.28-1.71-1.46-1.71-1.07,0-1.54,.98-1.62,1.71h3.08Z"/><path class="b" d="M25.14,21.49c.02,1.43,.94,2.01,1.99,2.01,.76,0,1.21-.13,1.61-.3l.18,.76c-.37,.17-1.01,.36-1.93,.36-1.79,0-2.85-1.18-2.85-2.93s1.03-3.13,2.72-3.13c1.9,0,2.4,1.67,2.4,2.73,0,.22-.02,.38-.04,.49h-4.08Zm3.09-.76c.01-.67-.28-1.71-1.46-1.71-1.07,0-1.54,.98-1.62,1.71h3.08Z"/><path class="b" d="M30.56,15.68h1.06v8.52h-1.06V15.68Z"/></g><g><path class="b" d="M83.41,22.78c.47,.29,1.15,.53,1.87,.53,1.07,0,1.69-.56,1.69-1.38,0-.76-.43-1.19-1.52-1.61-1.32-.47-2.13-1.15-2.13-2.29,0-1.26,1.04-2.19,2.61-2.19,.83,0,1.43,.19,1.79,.4l-.29,.85c-.26-.14-.8-.38-1.54-.38-1.1,0-1.52,.66-1.52,1.21,0,.76,.49,1.13,1.61,1.56,1.37,.53,2.06,1.19,2.06,2.37,0,1.25-.92,2.33-2.83,2.33-.78,0-1.63-.23-2.06-.52l.26-.88Z"/><path class="b" d="M93.64,23.83c-.28,.14-.89,.34-1.67,.34-1.75,0-2.89-1.19-2.89-2.96s1.22-3.08,3.12-3.08c.62,0,1.18,.16,1.46,.3l-.24,.82c-.25-.14-.65-.28-1.22-.28-1.33,0-2.05,.98-2.05,2.19,0,1.34,.86,2.17,2.02,2.17,.6,0,1-.16,1.3-.29l.18,.79Z"/><path class="b" d="M94.88,20.05c0-.68-.01-1.27-.05-1.81h.92l.04,1.14h.05c.26-.78,.9-1.27,1.61-1.27,.12,0,.2,.01,.3,.04v1c-.11-.02-.22-.04-.36-.04-.74,0-1.27,.56-1.42,1.36-.02,.14-.05,.31-.05,.49v3.09h-1.04v-3.99Z"/><path class="b" d="M99.27,21.34c.02,1.43,.94,2.01,1.99,2.01,.76,0,1.21-.13,1.61-.3l.18,.76c-.37,.17-1.01,.36-1.93,.36-1.79,0-2.85-1.18-2.85-2.93s1.03-3.13,2.72-3.13c1.9,0,2.4,1.67,2.4,2.73,0,.22-.02,.38-.04,.49h-4.08Zm3.09-.76c.01-.67-.28-1.71-1.46-1.71-1.07,0-1.54,.98-1.62,1.71h3.08Z"/><path class="b" d="M105.12,18.24l.77,2.95c.17,.65,.32,1.25,.43,1.85h.04c.13-.59,.32-1.21,.52-1.83l.95-2.96h.89l.9,2.9c.22,.7,.38,1.31,.52,1.9h.04c.1-.59,.25-1.2,.44-1.88l.83-2.91h1.04l-1.87,5.8h-.96l-.89-2.77c-.2-.65-.37-1.22-.52-1.91h-.02c-.14,.7-.32,1.29-.53,1.92l-.94,2.76h-.96l-1.75-5.8h1.08Z"/><path class="b" d="M113.31,22.97c.31,.2,.86,.42,1.39,.42,.77,0,1.13-.38,1.13-.86,0-.5-.3-.78-1.08-1.07-1.04-.37-1.54-.95-1.54-1.64,0-.94,.76-1.7,2-1.7,.59,0,1.1,.17,1.43,.36l-.26,.77c-.23-.14-.65-.34-1.19-.34-.62,0-.97,.36-.97,.79,0,.48,.35,.7,1.1,.98,1.01,.38,1.52,.89,1.52,1.75,0,1.02-.79,1.74-2.17,1.74-.64,0-1.22-.16-1.63-.4l.26-.8Z"/></g><rect class="d" x="160" width="80" height="80"/><rect class="d" x="160" y="120" width="80" height="80"/><rect class="d" x="280" y="120" width="80" height="80"/><rect class="d" x="280" width="80" height="80"/><g><path class="b" d="M162.72,35.03c.46-.1,1.18-.17,1.91-.17,1.04,0,1.72,.18,2.22,.59,.42,.31,.67,.79,.67,1.43,0,.78-.52,1.46-1.37,1.77v.02c.77,.19,1.67,.83,1.67,2.03,0,.7-.28,1.22-.68,1.62-.56,.52-1.48,.76-2.79,.76-.72,0-1.27-.05-1.62-.1v-7.95Zm1.04,3.31h.95c1.1,0,1.75-.58,1.75-1.35,0-.95-.72-1.32-1.77-1.32-.48,0-.76,.04-.92,.07v2.6Zm0,3.87c.2,.04,.5,.05,.88,.05,1.08,0,2.07-.4,2.07-1.57,0-1.1-.95-1.56-2.09-1.56h-.86v3.08Z"/><path class="b" d="M169.19,39.01c0-.68-.01-1.27-.05-1.81h.92l.04,1.14h.05c.26-.78,.9-1.27,1.61-1.27,.12,0,.2,.01,.3,.04v1c-.11-.02-.22-.04-.36-.04-.74,0-1.27,.56-1.42,1.36-.02,.14-.05,.31-.05,.49v3.09h-1.04v-3.99Z"/><path class="b" d="M174.34,35.57c.01,.36-.25,.65-.67,.65-.37,0-.64-.29-.64-.65s.28-.66,.66-.66,.65,.29,.65,.66Zm-1.18,7.44v-5.8h1.06v5.8h-1.06Z"/><path class="b" d="M180.98,34.49v7.02c0,.52,.01,1.1,.05,1.5h-.95l-.05-1.01h-.02c-.32,.65-1.03,1.14-1.98,1.14-1.4,0-2.48-1.19-2.48-2.95-.01-1.93,1.19-3.12,2.6-3.12,.89,0,1.49,.42,1.75,.89h.02v-3.47h1.06Zm-1.06,5.07c0-.13-.01-.31-.05-.44-.16-.67-.73-1.22-1.52-1.22-1.09,0-1.74,.96-1.74,2.24,0,1.18,.58,2.15,1.72,2.15,.71,0,1.35-.47,1.55-1.26,.04-.14,.05-.29,.05-.46v-1.01Z"/><path class="b" d="M187.74,37.2c-.02,.42-.05,.89-.05,1.6v3.37c0,1.33-.26,2.15-.83,2.65-.56,.53-1.38,.7-2.11,.7s-1.46-.17-1.93-.48l.26-.8c.38,.24,.98,.46,1.7,.46,1.08,0,1.87-.56,1.87-2.03v-.65h-.02c-.32,.54-.95,.97-1.85,.97-1.44,0-2.47-1.22-2.47-2.83,0-1.97,1.28-3.08,2.61-3.08,1.01,0,1.56,.53,1.81,1.01h.02l.05-.88h.92Zm-1.09,2.29c0-.18-.01-.34-.06-.48-.19-.61-.71-1.12-1.48-1.12-1.01,0-1.73,.85-1.73,2.19,0,1.14,.58,2.09,1.72,2.09,.65,0,1.24-.41,1.46-1.08,.06-.18,.08-.38,.08-.56v-1.04Z"/><path class="b" d="M190.03,40.29c.02,1.43,.94,2.01,1.99,2.01,.76,0,1.21-.13,1.61-.3l.18,.76c-.37,.17-1.01,.36-1.93,.36-1.79,0-2.85-1.18-2.85-2.93s1.03-3.13,2.72-3.13c1.9,0,2.4,1.67,2.4,2.73,0,.22-.02,.38-.04,.49h-4.08Zm3.09-.76c.01-.67-.28-1.71-1.46-1.71-1.07,0-1.54,.98-1.62,1.71h3.08Z"/><path class="b" d="M198,38.77c0-.6-.01-1.09-.05-1.57h.92l.05,.94h.04c.32-.55,.86-1.07,1.82-1.07,.79,0,1.39,.48,1.64,1.16h.02c.18-.32,.41-.58,.65-.76,.35-.26,.73-.41,1.28-.41,.77,0,1.91,.5,1.91,2.52v3.42h-1.03v-3.29c0-1.12-.41-1.79-1.26-1.79-.6,0-1.07,.44-1.25,.96-.05,.14-.08,.34-.08,.53v3.59h-1.03v-3.48c0-.92-.41-1.6-1.21-1.6-.66,0-1.14,.53-1.31,1.06-.06,.16-.08,.34-.08,.52v3.5h-1.03v-4.23Z"/><path class="b" d="M211.22,43l-.08-.73h-.04c-.32,.46-.95,.86-1.77,.86-1.18,0-1.77-.83-1.77-1.67,0-1.4,1.25-2.17,3.49-2.16v-.12c0-.48-.13-1.34-1.32-1.34-.54,0-1.1,.17-1.51,.43l-.24-.7c.48-.31,1.18-.52,1.91-.52,1.77,0,2.21,1.21,2.21,2.37v2.17c0,.5,.02,1,.1,1.39h-.96Zm-.16-2.96c-1.15-.02-2.46,.18-2.46,1.31,0,.68,.46,1.01,1,1.01,.76,0,1.24-.48,1.4-.97,.04-.11,.06-.23,.06-.34v-1.01Z"/><path class="b" d="M215.02,35.53v1.67h1.51v.8h-1.51v3.13c0,.72,.2,1.13,.79,1.13,.28,0,.48-.04,.61-.07l.05,.79c-.2,.08-.53,.14-.94,.14-.49,0-.89-.16-1.14-.44-.3-.31-.41-.83-.41-1.51v-3.17h-.9v-.8h.9v-1.39l1.03-.28Z"/><path class="b" d="M218.23,40.29c.02,1.43,.94,2.01,1.99,2.01,.76,0,1.21-.13,1.61-.3l.18,.76c-.37,.17-1.01,.36-1.93,.36-1.79,0-2.85-1.18-2.85-2.93s1.03-3.13,2.72-3.13c1.9,0,2.4,1.67,2.4,2.73,0,.22-.02,.38-.04,.49h-4.08Zm3.09-.76c.01-.67-.28-1.71-1.46-1.71-1.07,0-1.54,.98-1.62,1.71h3.08Z"/><path class="b" d="M223.66,39.01c0-.68-.01-1.27-.05-1.81h.92l.04,1.14h.05c.26-.78,.9-1.27,1.61-1.27,.12,0,.2,.01,.3,.04v1c-.11-.02-.22-.04-.36-.04-.74,0-1.27,.56-1.42,1.36-.02,.14-.05,.31-.05,.49v3.09h-1.04v-3.99Z"/><path class="b" d="M228.8,35.57c.01,.36-.25,.65-.67,.65-.37,0-.64-.29-.64-.65s.28-.66,.66-.66,.65,.29,.65,.66Zm-1.18,7.44v-5.8h1.06v5.8h-1.06Z"/><path class="b" d="M233.65,43l-.08-.73h-.04c-.32,.46-.95,.86-1.77,.86-1.18,0-1.77-.83-1.77-1.67,0-1.4,1.25-2.17,3.49-2.16v-.12c0-.48-.13-1.34-1.32-1.34-.54,0-1.1,.17-1.51,.43l-.24-.7c.48-.31,1.18-.52,1.91-.52,1.77,0,2.21,1.21,2.21,2.37v2.17c0,.5,.02,1,.1,1.39h-.96Zm-.16-2.96c-1.15-.02-2.46,.18-2.46,1.31,0,.68,.46,1.01,1,1.01,.76,0,1.24-.48,1.4-.97,.04-.11,.06-.23,.06-.34v-1.01Z"/><path class="b" d="M236.22,34.49h1.06v8.52h-1.06v-8.52Z"/></g><g><path class="b" d="M165.3,156.2c.5-.08,1.16-.16,2-.16,1.03,0,1.79,.24,2.27,.67,.44,.38,.71,.97,.71,1.69s-.22,1.31-.62,1.73c-.55,.59-1.45,.89-2.47,.89-.31,0-.6-.01-.84-.07v3.24h-1.04v-7.99Zm1.04,3.9c.23,.06,.52,.08,.86,.08,1.26,0,2.03-.61,2.03-1.73s-.76-1.58-1.91-1.58c-.46,0-.8,.04-.98,.08v3.14Z"/><path class="b" d="M171.59,155.68h1.06v8.52h-1.06v-8.52Z"/><path class="b" d="M177.64,164.19l-.08-.73h-.04c-.32,.46-.95,.86-1.77,.86-1.18,0-1.77-.83-1.77-1.67,0-1.4,1.25-2.17,3.49-2.16v-.12c0-.48-.13-1.34-1.32-1.34-.54,0-1.1,.17-1.51,.43l-.24-.7c.48-.31,1.18-.52,1.91-.52,1.77,0,2.21,1.21,2.21,2.37v2.17c0,.5,.02,1,.1,1.39h-.96Zm-.16-2.96c-1.15-.02-2.46,.18-2.46,1.31,0,.68,.46,1.01,1,1.01,.76,0,1.24-.48,1.4-.97,.04-.11,.06-.23,.06-.34v-1.01Z"/><path class="b" d="M180.21,159.96c0-.6-.01-1.09-.05-1.57h.94l.06,.96h.02c.29-.55,.96-1.09,1.92-1.09,.8,0,2.05,.48,2.05,2.47v3.47h-1.06v-3.35c0-.94-.35-1.71-1.34-1.71-.7,0-1.24,.49-1.42,1.08-.05,.13-.07,.31-.07,.49v3.49h-1.06v-4.23Z"/><path class="b" d="M187.45,161.48c.02,1.43,.94,2.01,1.99,2.01,.76,0,1.21-.13,1.61-.3l.18,.76c-.37,.17-1.01,.36-1.93,.36-1.79,0-2.85-1.18-2.85-2.93s1.03-3.13,2.72-3.13c1.9,0,2.4,1.67,2.4,2.73,0,.22-.02,.38-.04,.49h-4.08Zm3.09-.76c.01-.67-.28-1.71-1.46-1.71-1.07,0-1.54,.98-1.62,1.71h3.08Z"/><path class="b" d="M195.42,159.96c0-.6-.01-1.09-.05-1.57h.92l.05,.94h.04c.32-.55,.86-1.07,1.82-1.07,.79,0,1.39,.48,1.64,1.16h.02c.18-.32,.41-.58,.65-.76,.35-.26,.73-.41,1.28-.41,.77,0,1.91,.5,1.91,2.52v3.42h-1.03v-3.29c0-1.12-.41-1.79-1.26-1.79-.6,0-1.07,.44-1.25,.96-.05,.14-.08,.34-.08,.53v3.59h-1.03v-3.48c0-.92-.41-1.6-1.21-1.6-.66,0-1.14,.53-1.31,1.06-.06,.16-.08,.34-.08,.52v3.5h-1.03v-4.23Z"/><path class="b" d="M208.64,164.19l-.08-.73h-.04c-.32,.46-.95,.86-1.77,.86-1.18,0-1.77-.83-1.77-1.67,0-1.4,1.25-2.17,3.49-2.16v-.12c0-.48-.13-1.34-1.32-1.34-.54,0-1.1,.17-1.51,.43l-.24-.7c.48-.31,1.18-.52,1.91-.52,1.77,0,2.21,1.21,2.21,2.37v2.17c0,.5,.02,1,.1,1.39h-.96Zm-.16-2.96c-1.15-.02-2.46,.18-2.46,1.31,0,.68,.46,1.01,1,1.01,.76,0,1.24-.48,1.4-.97,.04-.11,.06-.23,.06-.34v-1.01Z"/><path class="b" d="M212.44,156.72v1.67h1.51v.8h-1.51v3.13c0,.72,.2,1.13,.79,1.13,.28,0,.48-.04,.61-.07l.05,.79c-.2,.08-.53,.14-.94,.14-.49,0-.89-.16-1.14-.44-.3-.31-.41-.83-.41-1.51v-3.17h-.9v-.8h.9v-1.39l1.03-.28Z"/><path class="b" d="M215.65,161.48c.02,1.43,.94,2.01,1.99,2.01,.76,0,1.21-.13,1.61-.3l.18,.76c-.37,.17-1.01,.36-1.93,.36-1.79,0-2.85-1.18-2.85-2.93s1.03-3.13,2.72-3.13c1.9,0,2.4,1.67,2.4,2.73,0,.22-.02,.38-.04,.49h-4.08Zm3.09-.76c.01-.67-.28-1.71-1.46-1.71-1.07,0-1.54,.98-1.62,1.71h3.08Z"/><path class="b" d="M221.08,160.2c0-.68-.01-1.27-.05-1.81h.92l.04,1.14h.05c.26-.78,.9-1.27,1.61-1.27,.12,0,.2,.01,.3,.04v1c-.11-.02-.22-.04-.36-.04-.74,0-1.27,.56-1.42,1.36-.02,.14-.05,.31-.05,.49v3.09h-1.04v-3.99Z"/><path class="b" d="M226.22,156.76c.01,.36-.25,.65-.67,.65-.37,0-.64-.29-.64-.65s.28-.66,.66-.66,.65,.29,.65,.66Zm-1.18,7.44v-5.8h1.06v5.8h-1.06Z"/><path class="b" d="M231.07,164.19l-.08-.73h-.04c-.32,.46-.95,.86-1.77,.86-1.18,0-1.77-.83-1.77-1.67,0-1.4,1.25-2.17,3.49-2.16v-.12c0-.48-.13-1.34-1.32-1.34-.54,0-1.1,.17-1.51,.43l-.24-.7c.48-.31,1.18-.52,1.91-.52,1.77,0,2.21,1.21,2.21,2.37v2.17c0,.5,.02,1,.1,1.39h-.96Zm-.16-2.96c-1.15-.02-2.46,.18-2.46,1.31,0,.68,.46,1.01,1,1.01,.76,0,1.24-.48,1.4-.97,.04-.11,.06-.23,.06-.34v-1.01Z"/><path class="b" d="M233.64,155.68h1.06v8.52h-1.06v-8.52Z"/></g><line class="c" x1="40" y1="38" x2="80" y2="38"/><line class="c" x1="240" y1="78" x2="280" y2="78"/><line class="c" x1="240" y1="198" x2="280" y2="198"/><path class="c" d="M160,78c-20,0-20-40-40-40"/><path class="c" d="M160,198c-20,0-20-160-40-160"/><g><path class="b" d="M304.29,35.03c.46-.1,1.18-.17,1.91-.17,1.04,0,1.72,.18,2.22,.59,.42,.31,.67,.79,.67,1.43,0,.78-.52,1.46-1.37,1.77v.02c.77,.19,1.67,.83,1.67,2.03,0,.7-.28,1.22-.68,1.62-.56,.52-1.48,.76-2.79,.76-.72,0-1.27-.05-1.62-.1v-7.95Zm1.04,3.31h.95c1.1,0,1.75-.58,1.75-1.35,0-.95-.72-1.32-1.77-1.32-.48,0-.76,.04-.92,.07v2.6Zm0,3.87c.2,.04,.5,.05,.88,.05,1.08,0,2.07-.4,2.07-1.57,0-1.1-.95-1.56-2.09-1.56h-.86v3.08Z"/><path class="b" d="M310.76,39.01c0-.68-.01-1.27-.05-1.81h.92l.04,1.14h.05c.26-.78,.9-1.27,1.61-1.27,.12,0,.2,.01,.3,.04v1c-.11-.02-.22-.04-.36-.04-.74,0-1.27,.56-1.42,1.36-.02,.14-.05,.31-.05,.49v3.09h-1.04v-3.99Z"/><path class="b" d="M315.9,35.57c.01,.36-.25,.65-.67,.65-.37,0-.64-.29-.64-.65s.28-.66,.66-.66,.65,.29,.65,.66Zm-1.18,7.44v-5.8h1.06v5.8h-1.06Z"/><path class="b" d="M322.55,34.49v7.02c0,.52,.01,1.1,.05,1.5h-.95l-.05-1.01h-.02c-.32,.65-1.03,1.14-1.98,1.14-1.4,0-2.48-1.19-2.48-2.95-.01-1.93,1.19-3.12,2.6-3.12,.89,0,1.49,.42,1.75,.89h.02v-3.47h1.06Zm-1.06,5.07c0-.13-.01-.31-.05-.44-.16-.67-.73-1.22-1.52-1.22-1.09,0-1.74,.96-1.74,2.24,0,1.18,.58,2.15,1.72,2.15,.71,0,1.35-.47,1.55-1.26,.04-.14,.05-.29,.05-.46v-1.01Z"/><path class="b" d="M329.3,37.2c-.02,.42-.05,.89-.05,1.6v3.37c0,1.33-.26,2.15-.83,2.65-.56,.53-1.38,.7-2.11,.7s-1.46-.17-1.93-.48l.26-.8c.38,.24,.98,.46,1.7,.46,1.08,0,1.87-.56,1.87-2.03v-.65h-.02c-.32,.54-.95,.97-1.85,.97-1.44,0-2.47-1.22-2.47-2.83,0-1.97,1.28-3.08,2.61-3.08,1.01,0,1.56,.53,1.81,1.01h.02l.05-.88h.92Zm-1.09,2.29c0-.18-.01-.34-.06-.48-.19-.61-.71-1.12-1.48-1.12-1.01,0-1.73,.85-1.73,2.19,0,1.14,.58,2.09,1.72,2.09,.65,0,1.24-.41,1.46-1.08,.06-.18,.08-.38,.08-.56v-1.04Z"/><path class="b" d="M331.6,40.29c.02,1.43,.94,2.01,1.99,2.01,.76,0,1.21-.13,1.61-.3l.18,.76c-.37,.17-1.01,.36-1.93,.36-1.79,0-2.85-1.18-2.85-2.93s1.03-3.13,2.72-3.13c1.9,0,2.4,1.67,2.4,2.73,0,.22-.02,.38-.04,.49h-4.08Zm3.09-.76c.01-.67-.28-1.71-1.46-1.71-1.07,0-1.54,.98-1.62,1.71h3.08Z"/></g><g><path class="b" d="M306.87,156.2c.5-.08,1.16-.16,2-.16,1.03,0,1.79,.24,2.27,.67,.44,.38,.71,.97,.71,1.69s-.22,1.31-.62,1.73c-.55,.59-1.45,.89-2.47,.89-.31,0-.6-.01-.84-.07v3.24h-1.04v-7.99Zm1.04,3.9c.23,.06,.52,.08,.86,.08,1.26,0,2.03-.61,2.03-1.73s-.76-1.58-1.91-1.58c-.46,0-.8,.04-.98,.08v3.14Z"/><path class="b" d="M313.16,155.68h1.06v8.52h-1.06v-8.52Z"/><path class="b" d="M319.2,164.19l-.08-.73h-.04c-.32,.46-.95,.86-1.77,.86-1.18,0-1.77-.83-1.77-1.67,0-1.4,1.25-2.17,3.49-2.16v-.12c0-.48-.13-1.34-1.32-1.34-.54,0-1.1,.17-1.51,.43l-.24-.7c.48-.31,1.18-.52,1.91-.52,1.77,0,2.21,1.21,2.21,2.37v2.17c0,.5,.02,1,.1,1.39h-.96Zm-.16-2.96c-1.15-.02-2.46,.18-2.46,1.31,0,.68,.46,1.01,1,1.01,.76,0,1.24-.48,1.4-.97,.04-.11,.06-.23,.06-.34v-1.01Z"/><path class="b" d="M321.77,159.96c0-.6-.01-1.09-.05-1.57h.94l.06,.96h.02c.29-.55,.96-1.09,1.92-1.09,.8,0,2.05,.48,2.05,2.47v3.47h-1.06v-3.35c0-.94-.35-1.71-1.34-1.71-.7,0-1.24,.49-1.42,1.08-.05,.13-.07,.31-.07,.49v3.49h-1.06v-4.23Z"/><path class="b" d="M329.02,161.48c.02,1.43,.94,2.01,1.99,2.01,.76,0,1.21-.13,1.61-.3l.18,.76c-.37,.17-1.01,.36-1.93,.36-1.79,0-2.85-1.18-2.85-2.93s1.03-3.13,2.72-3.13c1.9,0,2.4,1.67,2.4,2.73,0,.22-.02,.38-.04,.49h-4.08Zm3.09-.76c.01-.67-.28-1.71-1.46-1.71-1.07,0-1.54,.98-1.62,1.71h3.08Z"/></g></svg>